<?xml version="1.0" standalone="no"?>
<!DOCTYPE svg PUBLIC "-//W3C//DTD SVG 20010904//EN"
 "http://www.w3.org/TR/2001/REC-SVG-20010904/DTD/svg10.dtd">
<svg version="1.0" xmlns="http://www.w3.org/2000/svg"
 width="222.000000pt" height="222.000000pt" viewBox="0 0 222.000000 222.000000"
 preserveAspectRatio="xMidYMid meet">
<metadata>
Created by potrace 1.14, written by Peter Selinger 2001-2017
</metadata>
<g transform="translate(0.000000,222.000000) scale(0.100000,-0.100000)"
fill="#000000" stroke="none">
<path d="M0 1110 l0 -1110 1110 0 1110 0 0 1110 0 1110 -1110 0 -1110 0 0
-1110z m392 455 c82 -21 232 -94 283 -138 l39 -34 61 45 c33 24 78 53 100 64
87 45 247 88 326 88 l39 0 0 -405 0 -405 223 0 c208 0 225 2 278 23 144 60
221 173 222 327 1 89 -31 171 -91 234 -91 94 -160 116 -369 116 l-153 0 0 55
0 55 153 0 c232 0 330 -31 437 -139 207 -206 169 -547 -78 -711 -95 -63 -143
-70 -453 -70 l-279 0 0 401 0 401 -32 -7 c-94 -20 -228 -84 -280 -132 l-26
-25 29 -43 c77 -114 102 -217 103 -425 l1 -165 -51 -3 -51 -3 -6 168 c-4 116
-10 185 -22 223 -19 62 -59 145 -74 155 -10 6 -50 -65 -79 -139 -11 -29 -17
-95 -21 -221 l-6 -180 -53 -3 -54 -3 4 188 c4 210 15 257 86 383 20 36 38 68
40 71 1 4 -28 27 -65 52 -65 44 -161 87 -230 102 l-33 7 -2 -399 -3 -398 -52
-3 -53 -3 0 462 0 462 64 -6 c36 -3 93 -13 128 -22z"/>
</g>
</svg>
